<svg width="852" height="689" viewBox="0 0 852 689" fill="none" xmlns="http://www.w3.org/2000/svg">
<g filter="url(#filter0_i_1_28)">
<path fill-rule="evenodd" clip-rule="evenodd" d="M425.843 680.206C530.08 650.756 444.513 573.601 480.886 525.513C525.069 467.098 873.596 393.384 850.844 296.798C782.366 142.994 576.566 236.059 524.864 180.514C474.741 126.665 386.833 42.235 318.593 14.7108C253.274 -11.6348 113.399 -10.9907 91.577 115.785C77.6596 211.144 121.043 234.434 90.0804 283.159C57.2959 334.752 5.75086 377.522 1.31103 438.473C-3.50057 504.526 15.5646 577.788 65.4451 621.353C113.994 663.756 187.221 646.033 250.856 656.425C310.408 666.15 370.849 705.063 425.843 680.206Z" fill="#162C4E"/>
</g>
<defs>
<filter id="filter0_i_1_28" x="0.590698" y="0.94397" width="851.319" height="691.427" filterUnits="userSpaceOnUse" color-interpolation-filters="sRGB">
<feFlood flood-opacity="0" result="BackgroundImageFix"/>
<feBlend mode="normal" in="SourceGraphic" in2="BackgroundImageFix" result="shape"/>
<feColorMatrix in="SourceAlpha" type="matrix" values="0 0 0 0 0 0 0 0 0 0 0 0 0 0 0 0 0 0 127 0" result="hardAlpha"/>
<feOffset dy="4"/>
<feGaussianBlur stdDeviation="15"/>
<feComposite in2="hardAlpha" operator="arithmetic" k2="-1" k3="1"/>
<feColorMatrix type="matrix" values="0 0 0 0 0 0 0 0 0 0 0 0 0 0 0 0 0 0 1 0"/>
<feBlend mode="normal" in2="shape" result="effect1_innerShadow_1_28"/>
</filter>
</defs>
</svg>
